<svg
   xmlns:osb="http://www.openswatchbook.org/uri/2009/osb"
   xmlns:dc="http://purl.org/dc/elements/1.1/"
   xmlns:cc="http://creativecommons.org/ns#"
   xmlns:rdf="http://www.w3.org/1999/02/22-rdf-syntax-ns#"
   xmlns:svg="http://www.w3.org/2000/svg"
   xmlns="http://www.w3.org/2000/svg"
   xmlns:sodipodi="http://sodipodi.sourceforge.net/DTD/sodipodi-0.dtd"
   xmlns:inkscape="http://www.inkscape.org/namespaces/inkscape"
   width="1920px"
   height="1932px"
   viewBox="0 0 1920 1932"
   version="1.1"
   id="SVGRoot"
   sodipodi:docname="portfolioLogoWhite.svg"
   inkscape:version="0.92.4 (5da689c313, 2019-01-14)">
  <defs
     id="defs4747">
    <linearGradient
       id="linearGradient9313"
       osb:paint="solid">
      <stop
         style="stop-color:#ff0000;stop-opacity:1;"
         offset="0"
         id="stop9311" />
    </linearGradient>
  </defs>
  <sodipodi:namedview
     id="base"
     pagecolor="#5e5e5e"
     bordercolor="#666666"
     borderopacity="1.0"
     inkscape:pageopacity="0"
     inkscape:pageshadow="2"
     inkscape:zoom="0.35"
     inkscape:cx="593.75599"
     inkscape:cy="950.17913"
     inkscape:document-units="px"
     inkscape:current-layer="layer1"
     showgrid="false"
     inkscape:window-width="1600"
     inkscape:window-height="837"
     inkscape:window-x="-8"
     inkscape:window-y="-8"
     inkscape:window-maximized="1"
     inkscape:snap-global="false" />
  <metadata
     id="metadata4750">
    <rdf:RDF>
      <cc:Work
         rdf:about="">
        <dc:format>image/svg+xml</dc:format>
        <dc:type
           rdf:resource="http://purl.org/dc/dcmitype/StillImage" />
        <dc:title></dc:title>
      </cc:Work>
    </rdf:RDF>
  </metadata>
  <g
     inkscape:label="Layer 1"
     inkscape:groupmode="layer"
     id="layer1">
    <path
       id="path9319"
       style="fill:none;fill-opacity:1;stroke:#ffffff;stroke-width:23.46009636;stroke-linecap:butt;stroke-linejoin:miter;stroke-miterlimit:4;stroke-dasharray:none;stroke-opacity:0.81909549;opacity:1"
       d="M 1302.0758,123.99348 621.08558,120.76826 967.61291,893.6104 Z M 100.00119,698.59869 981.01484,1884.0335 1819.3136,677.90476 M 757.2323,836.37573 980.78753,1883.864 1166.5521,844.06497 M 1370.2972,1798.643 C 604.38645,1889.6689 1753.3017,152.01356 1741.8297,119.81856 L 152.20753,120.21489 C 151.90321,133.86971 1307.5593,1813.7625 629.14552,1830.0191 M 1815.3924,680.81718 1164.1992,853.4764 1304.2943,130.64844 Z M 615.53974,131.85982 758.55577,843.5087 101.60918,698.53144 Z M 1880.3451,974.25316 c 0,243.84794 -96.9816,477.70844 -269.6101,650.13504 -172.6283,172.4264 -406.7626,269.2948 -650.89627,269.2948 -244.13333,0 -478.2678,-96.8684 -650.89622,-269.2948 C 136.31407,1451.9616 39.332411,1218.1011 39.332411,974.25316 39.332411,730.40519 136.31407,496.54459 308.94249,324.11804 481.57093,151.69148 715.7054,54.823266 959.83873,54.823266 c 244.13367,0 478.26797,96.868214 650.89627,269.294774 172.6285,172.42655 269.6101,406.28715 269.6101,650.13512 z"
       inkscape:connector-curvature="0"
       sodipodi:nodetypes="ccccccccccccccccccccccsssssssss"
       inkscape:export-filename="C:\Users\Kyle\Logo.svg.png"
       inkscape:export-xdpi="133.89999"
       inkscape:export-ydpi="133.89999" />
  </g>
</svg>
